<svg width="21" height="15" viewBox="0 0 21 15" xmlns="http://www.w3.org/2000/svg" xmlns:xlink="http://www.w3.org/1999/xlink"><title>79F01A6E-D065-4BAC-A881-D489E5A44986</title><defs><path id="a" d="M0 0h21v15H0z"/></defs><g fill="none" fill-rule="evenodd"><mask id="b" fill="#fff"><use xlink:href="#a"/></mask><use fill="#22438B" xlink:href="#a"/><path fill="#FFF" mask="url(#b)" d="M-.386-.334L-.36 1.64l19.587 13.708 2.037-.037-.037-1.963L1.64-.36z"/><path fill="#C7152A" mask="url(#b)" d="M-1.61-.135l22.882 16.04 1-1L-.61-1.136z"/><path d="M21.476-.418v2S6.666 11.907 1.434 15.54c-.064.044-1.998.003-1.998.003l-.156-1.904L19.476-.418h2z" fill="#FFF" mask="url(#b)"/><path fill="#C7152A" mask="url(#b)" d="M22.897-.268L-1.134 16.495l-1-1L21.94-1.295z"/><path fill="#FFF" mask="url(#b)" d="M8 0h5v5h8v5h-8v5H8v-5H0V5h8z"/><path fill="#C7152A" mask="url(#b)" d="M9 0h3v6h9v3h-9v6H9V9H0V6h9z"/></g></svg>