<?xml version="1.0" encoding="UTF-8"?>
<svg width="100px" height="130px" viewBox="0 0 100 130" version="1.1" xmlns="http://www.w3.org/2000/svg" xmlns:xlink="http://www.w3.org/1999/xlink">
    <!-- Generator: Sketch 42 (36781) - http://www.bohemiancoding.com/sketch -->
    <title>logo-footer</title>
    <desc>Created with Sketch.</desc>
    <defs>
        <path d="M0,4.00718972 C0,1.79407995 1.79383278,0 3.99018572,0 L236.009814,0 C238.213533,0 240,1.79426827 240,4.00718972 L240,45.9928103 C240,48.2059201 238.206167,50 236.009814,50 L3.99018572,50 C1.786467,50 0,48.2057317 0,45.9928103 L0,4.00718972 Z" id="path-1"></path>
        <polygon id="path-3" points="0 0 20 0 20 16 0 16"></polygon>
        <mask id="mask-4" maskContentUnits="userSpaceOnUse" maskUnits="objectBoundingBox" x="0" y="0" width="20" height="16" fill="white">
            <use xlink:href="#path-3"></use>
        </mask>
    </defs>
    <g id="main" stroke="none" stroke-width="1" fill="none" fill-rule="evenodd">
        <g id="1-1-homepage" transform="translate(-113.000000, -5924.000000)">
            <g id="footer" transform="translate(0.000000, 5924.000000)">
                <g>
                    <rect id="Rectangle-18" fill="#2F2F2F" x="0" y="0" width="1366" height="498"></rect>
                    <text id="©-Copyright-2017-ILA" opacity="0.449999988" font-family="Tahoma" font-size="14" font-weight="normal" fill-opacity="0.697095788" fill="#FFFFFF">
                        <tspan x="113" y="444">© Copyright 2017 ILA Vietnam. All rights reserved.</tspan>
                    </text>
                    <g id="social" opacity="0.5" transform="translate(1138.000000, 428.000000)" fill="#FFFFFF">
                        <g id="Group-24" transform="translate(126.000000, 0.000000)">
                            <path d="M10.5,7 C9.11927492,7 8,8.11927492 8,9.5 C8,10.8807251 9.11927492,12 10.5,12 C11.8807251,12 13,10.8807251 13,9.5 C13,8.11927492 11.8807251,7 10.5,7" id="Fill-1"></path>
                            <path d="M15.3571429,5.85714286 C14.6865513,5.85714286 14.1428571,5.31344873 14.1428571,4.64285714 C14.1428571,3.97222121 14.6865513,3.42857143 15.3571429,3.42857143 C16.0277788,3.42857143 16.5714286,3.97222121 16.5714286,4.64285714 C16.5714286,5.31344873 16.0277788,5.85714286 15.3571429,5.85714286 M10.5000207,14.3571429 C7.81751715,14.3571429 5.64285714,12.182598 5.64285714,9.50000001 C5.64285714,6.81748499 7.81751715,4.64285714 10.5000207,4.64285714 C13.1824828,4.64285714 15.3571429,6.81748499 15.3571429,9.50000001 C15.3571429,12.182598 13.1824828,14.3571429 10.5000207,14.3571429 M18.9488819,5.99550277 C18.9076001,5.09073177 18.7639334,4.47288393 18.5537611,3.93215994 C18.3365843,3.37325409 18.0459346,2.89918449 17.5733543,2.42664247 C17.1008112,1.95410045 16.6268152,1.66345153 16.0678336,1.44623794 C15.5271829,1.23614061 14.9093337,1.09247412 14.0045608,1.05111785 C13.0979622,1.00972431 12.8085049,1 10.5000372,1 C8.19153233,1 7.90207503,1.00972431 6.99547643,1.05111785 C6.09070345,1.09247412 5.47285426,1.23614061 4.93220361,1.44623794 C4.37322201,1.66345153 3.8992259,1.95410045 3.42664559,2.42664247 C2.95410254,2.89918449 2.66345298,3.37325409 2.44627617,3.93215994 C2.23610387,4.47288393 2.09243707,5.09073177 2.05115522,5.99550277 C2.00976159,6.90209939 2,7.19148155 2,9.49998139 C2,11.8085185 2.00976159,12.0979006 2.05115522,13.0044973 C2.09243707,13.9092683 2.23610387,14.5271534 2.44627617,15.0678401 C2.66345298,15.6267459 2.95410254,16.1008156 3.42664559,16.5733576 C3.8992259,17.0459368 4.37322201,17.3365857 4.93220361,17.5537621 C5.47285426,17.7638967 6.09070345,17.9075631 6.99547643,17.9488822 C7.90207503,17.9902012 8.19153233,18 10.5000372,18 C12.8085049,18 13.0979622,17.9902012 14.0045608,17.9488822 C14.9093337,17.9075631 15.5271829,17.7638967 16.0678336,17.5537621 C16.6268152,17.3365857 17.1008112,17.0459368 17.5733543,16.5733576 C18.0459346,16.1008156 18.3365843,15.6267459 18.5537611,15.0678401 C18.7639334,14.5271534 18.9076001,13.9092683 18.9488819,13.0044973 C18.9902755,12.0979006 19,11.8085185 19,9.49998139 C19,7.19148155 18.9902755,6.90209939 18.9488819,5.99550277" id="Fill-3"></path>
                        </g>
                        <g id="Group-12" transform="translate(83.000000, 0.000000)">
                            <path d="M8.53848187,11.5819191 L8.53762068,5.98915192 L13.6714989,8.79527196 L8.53848187,11.5819191 L8.53848187,11.5819191 Z M19.8103215,5.02024617 C19.8103215,5.02024617 19.624662,3.64857579 19.0549806,3.04454159 C18.3325087,2.25171851 17.5226252,2.2478089 17.1512344,2.20141992 C14.4924343,2 10.5041624,2 10.5041624,2 L10.4959093,2 C10.4959093,2 6.50763745,2 3.84876561,2.20141992 C3.4773747,2.2478089 2.66777842,2.25171851 1.94501941,3.04454159 C1.37540982,3.64857579 1.19003732,5.02024617 1.19003732,5.02024617 C1.19003732,5.02024617 1,6.63100403 1,8.24183708 L1,9.75192257 C1,11.3626804 1.19003732,12.9735135 1.19003732,12.9735135 C1.19003732,12.9735135 1.37540982,14.3451839 1.94501941,14.9492181 C2.66777842,15.7420412 3.61717558,15.7169295 4.04009474,15.8000838 C5.56010621,15.952784 10.5,16 10.5,16 C10.5,16 14.4924343,15.9936845 17.1512344,15.7923397 C17.5226252,15.7459508 18.3325087,15.7420412 19.0549806,14.9492181 C19.624662,14.3451839 19.8103215,12.9735135 19.8103215,12.9735135 C19.8103215,12.9735135 20,11.3626804 20,9.75192257 L20,8.24183708 C20,6.63100403 19.8103215,5.02024617 19.8103215,5.02024617 L19.8103215,5.02024617 L19.8103215,5.02024617 Z" id="Fill-1"></path>
                        </g>
                        <g id="Twitter_icon" transform="translate(39.000000, 0.000000)">
                            <path d="M20,3.77565173 C19.3009725,4.07681074 18.549713,4.28041244 17.7611582,4.37194656 C18.5658711,3.90323368 19.1840139,3.1611961 19.4750484,2.27688378 C18.7219098,2.71091776 17.887699,3.02603955 16.9997528,3.19578376 C16.2887007,2.45986062 15.2755289,2 14.1544171,2 C12.0016267,2 10.2563596,3.69552521 10.2563596,5.78675514 C10.2563596,6.08344239 10.2908366,6.37255503 10.357348,6.64962132 C7.11764088,6.49174097 4.24524974,4.98412076 2.32280681,2.69312197 C1.98714963,3.25245647 1.79494292,3.90286852 1.79494292,4.59690316 C1.79494292,5.91068659 2.48316697,7.06969251 3.52912475,7.74876045 C2.89012661,7.72913949 2.28898745,7.55884762 1.76356607,7.27511939 C1.7631903,7.29099876 1.7631903,7.30678672 1.7631903,7.32275733 C1.7631903,9.15745444 3.10685234,10.6878897 4.88997823,11.0358654 C4.5629639,11.1224713 4.21857001,11.1688316 3.86309096,11.1688316 C3.61188822,11.1688316 3.36773124,11.1449214 3.12968045,11.100934 C3.6256978,12.6050863 5.06536924,13.7000274 6.77108647,13.7305083 C5.43700646,14.7461444 3.75618412,15.3516565 1.92993854,15.3516565 C1.61523058,15.3516565 1.30493792,15.3335869 1,15.2985429 C2.72506939,16.373133 4.77405301,17 6.97541176,17 C14.1453045,17 18.0661901,11.2297934 18.0661901,6.22580838 C18.0661901,6.0616311 18.0624323,5.89836647 18.0549169,5.73583186 C18.8165101,5.20195901 19.4773969,4.53502868 20,3.77565173" id="Fill-1"></path>
                        </g>
                        <g id="Facebook_icon">
                            <path d="M11.1398979,20 L11.1398979,10.8771297 L14.3831224,10.8771297 L14.8686466,7.32168463 L11.1398979,7.32168463 L11.1398979,5.05171108 C11.1398979,4.02232589 11.442566,3.32081283 13.0059674,3.32081283 L15,3.31999555 L15,0.140030165 C14.6550621,0.0968496603 13.4714389,-1.77635684e-15 12.0944282,-1.77635684e-15 C9.21951248,-1.77635684e-15 7.25144766,1.65686483 7.25144766,4.69966055 L7.25144766,7.32168463 L4,7.32168463 L4,10.8771297 L7.25144766,10.8771297 L7.25144766,20 L11.1398979,20 L11.1398979,20 Z" id="Fill-1"></path>
                        </g>
                    </g>
                    <g id="about-us" transform="translate(263.000000, 60.000000)" fill="#FFFFFF">
                        <text id="About-US" font-family="OpenSans-Bold, Open Sans" font-size="12" font-weight="bold" letter-spacing="0.857142866">
                            <tspan x="0" y="13">About US</tspan>
                        </text>
                        <text id="Introduction-Vision," opacity="0.800000012" font-family="OpenSans, Open Sans" font-size="14" font-weight="normal" line-spacing="24">
                            <tspan x="0" y="57">Introduction</tspan>
                            <tspan x="0" y="91">Vision, Mission &amp; Core Values</tspan>
                            <tspan x="0" y="125">Awards</tspan>
                            <tspan x="0" y="159">Centres</tspan>
                            <tspan x="0" y="193">Career with Us</tspan>
                        </text>
                    </g>
                    <g id="why-choose-us" transform="translate(513.000000, 60.000000)" fill="#FFFFFF">
                        <text id="WHY-CHOOSE-US" font-family="OpenSans-Bold, Open Sans" font-size="12" font-weight="bold" letter-spacing="0.857142866">
                            <tspan x="0" y="13">WHY CHOOSE US</tspan>
                        </text>
                        <text id="21st-Century-Learnin" opacity="0.800000012" font-family="OpenSans, Open Sans" font-size="14" font-weight="normal" line-spacing="24">
                            <tspan x="0" y="57">21st Century Learning</tspan>
                            <tspan x="0" y="91">Learning Guarantee</tspan>
                            <tspan x="0" y="125">NEAS Accreditation</tspan>
                            <tspan x="0" y="159">Professional Certified Teachers,</tspan>
                            <tspan x="0" y="193">Academic Management</tspan>
                            <tspan x="0" y="227">ILA Welfare, Health &amp; Safety</tspan>
                            <tspan x="0" y="261">Customer Care</tspan>
                        </text>
                    </g>
                    <g id="explore-more" transform="translate(763.000000, 60.000000)" fill="#FFFFFF">
                        <text id="Explore-More" font-family="OpenSans-Bold, Open Sans" font-size="12" font-weight="bold" letter-spacing="0.857142866">
                            <tspan x="0" y="13">Explore More</tspan>
                        </text>
                        <text id="Gallery-Teacher-Trai" opacity="0.800000012" font-family="OpenSans, Open Sans" font-size="14" font-weight="normal" line-spacing="24">
                            <tspan x="0" y="57">Gallery</tspan>
                            <tspan x="0" y="91">Teacher Training Courses</tspan>
                            <tspan x="0" y="125">ILA Community Network</tspan>
                            <tspan x="0" y="159">ILA Cafe</tspan>
                        </text>
                    </g>
                    <g id="newsletter" transform="translate(1013.000000, 60.000000)">
                        <text id="Newsletter" font-family="OpenSans-Bold, Open Sans" font-size="12" font-weight="bold" letter-spacing="0.857142866" fill="#FFFFFF">
                            <tspan x="0" y="13">Newsletter</tspan>
                        </text>
                        <g id="field" transform="translate(0.000000, 51.000000)">
                            <mask id="mask-2" fill="white">
                                <use xlink:href="#path-1"></use>
                            </mask>
                            <use id="Rectangle-19" fill="#FFFFFF" opacity="0.100000001" xlink:href="#path-1"></use>
                            <text id="Email-address" opacity="0.300000012" mask="url(#mask-2)" font-family="OpenSans, Open Sans" font-size="14" font-weight="normal" line-spacing="24" fill="#FFFFFF">
                                <tspan x="13" y="28">Email address</tspan>
                            </text>
                            <rect id="Rectangle-20" fill="#45C0F8" mask="url(#mask-2)" x="180" y="0" width="60" height="50"></rect>
                            <g id="Group-26" mask="url(#mask-2)" stroke-linecap="round" stroke="#FFFFFF" stroke-linejoin="round">
                                <g transform="translate(200.000000, 17.000000)">
                                    <polyline id="Stroke-289" stroke-width="1" points="1 1 10 8 19 1"></polyline>
                                    <use id="Stroke-290" mask="url(#mask-4)" stroke-width="2" xlink:href="#path-3"></use>
                                </g>
                            </g>
                        </g>
                    </g>
                    <g id="logo" transform="translate(113.000000, 0.000000)">
                        <polygon id="Fill-1" fill="#2B368C" points="0 130 100 130 100 0 0 0"></polygon>
                        <path d="M22.3485563,106.226956 L23.5253169,106.226956 C23.5390493,106.550548 23.5453873,106.761815 23.5453873,106.854773 C23.5453873,107.366393 23.4408099,107.76921 23.2337676,108.066041 C22.9503169,108.475548 22.5003169,108.682942 21.8830634,108.682942 C21.3654577,108.682942 20.9601761,108.491393 20.6640493,108.110055 C20.4179225,107.808294 20.2971479,107.362167 20.2971479,106.776252 L20.2971479,103.635407 C20.2971479,102.992449 20.4351761,102.520618 20.7063028,102.208294 C20.9798944,101.901604 21.3939789,101.744914 21.9499648,101.744914 C22.4351761,101.744914 22.8179225,101.895618 23.0982042,102.201252 C23.3830634,102.498787 23.5253169,102.914632 23.5253169,103.429421 L23.5253169,105.414632 L21.4728521,105.414632 L21.4728521,106.903013 C21.4728521,107.366393 21.6165141,107.598435 21.9031338,107.598435 C22.0763732,107.598435 22.1978521,107.52766 22.2714437,107.387167 C22.3277817,107.283294 22.3524296,107.080829 22.3485563,106.797027 L22.3485563,106.496674 L22.3485563,106.226956 Z M21.4728521,104.473435 L22.3485563,104.473435 L22.3485563,103.331886 C22.3485563,102.997731 22.2041901,102.83259 21.912993,102.83259 C21.6210915,102.83259 21.4728521,102.997731 21.4728521,103.331886 L21.4728521,104.473435 Z" id="Fill-2" fill="#FEFEFE"></path>
                        <path d="M27.7273592,108.588505 L26.5805282,108.588505 L26.552007,107.955055 C26.1326408,108.439914 25.7541197,108.682872 25.4196127,108.682872 C25.2826408,108.682872 25.1509507,108.645548 25.0157394,108.569844 C24.8812324,108.499773 24.7794718,108.405407 24.7129225,108.288505 C24.5879225,108.092027 24.527007,107.693435 24.527007,107.088858 L24.527007,103.336745 C24.527007,102.738153 24.5879225,102.338153 24.7129225,102.13428 C24.7794718,102.023013 24.8812324,101.924421 25.0129225,101.851534 C25.1446127,101.778998 25.2798239,101.744844 25.4125704,101.744844 C25.7460211,101.744844 26.1273592,101.988505 26.552007,102.474421 L26.552007,99.5251252 L27.7273592,99.5251252 L27.7273592,108.588505 Z M26.552007,103.10259 C26.3365141,102.924773 26.1565845,102.83252 26.0167958,102.83252 C25.8090493,102.83252 25.7009507,103.00259 25.7009507,103.336745 L25.7009507,107.088858 C25.7009507,107.426182 25.8090493,107.593083 26.0167958,107.593083 C26.1565845,107.593083 26.3365141,107.503998 26.552007,107.3209 L26.552007,103.10259 Z" id="Fill-4" fill="#FEFEFE"></path>
                        <path d="M31.9425704,108.588505 L30.8707394,108.588505 L30.7682746,108.006111 C30.3323592,108.458224 29.950669,108.682872 29.6348239,108.682872 C29.5003169,108.682872 29.3679225,108.645548 29.2323592,108.574069 C29.0996127,108.505055 28.9982042,108.413505 28.9302465,108.303998 C28.8073592,108.109984 28.7436268,107.718787 28.7436268,107.134984 L28.7436268,101.835689 L29.9182746,101.835689 L29.9182746,107.088858 C29.9182746,107.426182 30.0225,107.593083 30.2302465,107.593083 C30.3735563,107.593083 30.5527817,107.503998 30.7682746,107.3209 L30.7682746,101.835689 L31.9425704,101.835689 L31.9425704,108.588505 Z" id="Fill-6" fill="#FEFEFE"></path>
                        <path d="M36.1593662,104.200689 L34.983662,104.200689 L34.983662,103.927449 L34.983662,103.627801 C34.983662,103.335196 34.9600704,103.135548 34.905493,103.03766 C34.8322535,102.896463 34.7040845,102.827097 34.5308451,102.827097 C34.2516197,102.827097 34.1069014,103.057027 34.1069014,103.52252 L34.1069014,106.903153 C34.1069014,107.366534 34.2516197,107.598576 34.5308451,107.598576 C34.7040845,107.598576 34.8322535,107.527449 34.905493,107.386956 C34.9600704,107.290125 34.983662,107.091182 34.983662,106.797167 L34.983662,106.496815 L34.983662,106.111956 L36.1593662,106.111956 C36.1723944,106.496815 36.1797887,106.736604 36.1797887,106.828858 C36.1797887,107.357379 36.0776761,107.769351 35.8702817,108.065829 C35.5843662,108.475689 35.1371831,108.682731 34.5192254,108.682731 C34.0033803,108.682731 33.5966901,108.491534 33.2991549,108.110196 C33.0533803,107.808435 32.9340141,107.362308 32.9340141,106.776393 L32.9340141,103.64928 C32.9340141,103.065477 33.0533803,102.615125 33.2991549,102.307379 C33.5966901,101.932027 34.0033803,101.744703 34.5192254,101.744703 C35.1371831,101.744703 35.5843662,101.94928 35.8702817,102.359491 C36.0776761,102.657027 36.1797887,103.059844 36.1797887,103.566534 C36.1797887,103.658083 36.1723944,103.866886 36.1593662,104.200689" id="Fill-8" fill="#FEFEFE"></path>
                        <path d="M40.278169,108.588505 L39.0570423,108.588505 C39.0214789,108.450125 38.9911972,108.267731 38.9753521,108.035689 C38.6901408,108.469491 38.3528169,108.682872 37.9721831,108.682872 C37.2820423,108.682872 36.9387324,108.109984 36.9387324,106.976886 C36.9387324,106.442379 37.046831,105.989914 37.2623239,105.627238 C37.4623239,105.287801 37.8380282,104.939562 38.3855634,104.591674 C38.6588028,104.411393 38.8573944,104.27759 38.9753521,104.200829 L38.9753521,103.441322 C38.9753521,103.199421 38.9598592,103.046604 38.9292254,102.983928 C38.8721831,102.882872 38.7651408,102.83252 38.6109155,102.83252 C38.4007042,102.83252 38.2669014,102.936041 38.2049296,103.137449 C38.1707746,103.25752 38.1429577,103.487449 38.125,103.820548 L36.9830986,103.820548 C37.0373239,103.18252 37.1383803,102.729351 37.290493,102.462097 C37.5549296,101.981463 38.0014085,101.744844 38.6316901,101.744844 C39.1077465,101.744844 39.4838028,101.883928 39.7535211,102.167379 C40.0176056,102.438153 40.1503521,102.836041 40.1503521,103.357872 L40.1503521,107.500125 C40.1542254,107.975829 40.1985915,108.334984 40.278169,108.588505 L40.278169,108.588505 Z M38.9753521,105.126534 C38.6316901,105.414562 38.3978873,105.692731 38.2711268,105.973013 C38.1651408,106.20752 38.1119718,106.507167 38.1119718,106.868787 C38.1119718,107.345196 38.2366197,107.586745 38.484507,107.586745 C38.6514085,107.586745 38.8179577,107.469139 38.9753521,107.225829 L38.9753521,105.126534 Z" id="Fill-10" fill="#FEFEFE"></path>
                        <path d="M43.4859507,102.926921 L42.6465141,102.926921 L42.6465141,106.897696 C42.6465141,107.305794 42.8377113,107.512484 43.2172887,107.512484 C43.2771479,107.512484 43.3644718,107.508963 43.4859507,107.499808 L43.4859507,108.588541 C43.1887676,108.651921 42.9641197,108.682907 42.8077817,108.682907 C42.3915845,108.682907 42.0577817,108.569174 41.8186972,108.341358 C41.5827817,108.12516 41.4715141,107.777273 41.4715141,107.301569 L41.4715141,102.926921 L40.9028521,102.926921 L40.9028521,101.835724 L41.4715141,101.835724 L41.4715141,99.9779773 L42.6465141,99.9779773 L42.6465141,101.835724 L43.4859507,101.835724 L43.4859507,102.926921 Z" id="Fill-12" fill="#FEFEFE"></path>
                        <path d="M44.0957746,108.588576 L45.2679577,108.588576 L45.2679577,101.835759 L44.0957746,101.835759 L44.0957746,108.588576 Z M44.0957746,100.734703 L45.2679577,100.734703 L45.2679577,99.5248435 L44.0957746,99.5248435 L44.0957746,100.734703 Z" id="Fill-14" fill="#FEFEFE"></path>
                        <path d="M49.4880282,103.649174 L49.4880282,106.776287 C49.4880282,108.044597 48.9489437,108.682977 47.8753521,108.682977 C46.8,108.682977 46.2588028,108.044597 46.2588028,106.776287 L46.2588028,103.649174 C46.2588028,102.376639 46.8,101.744949 47.8753521,101.744949 C48.9489437,101.744949 49.4880282,102.376639 49.4880282,103.649174 M47.4334507,103.45516 L47.4334507,106.970653 C47.4334507,107.386498 47.5823944,107.592836 47.8753521,107.592836 C48.1647887,107.592836 48.3112676,107.386498 48.3112676,106.970653 L48.3112676,103.45516 C48.3112676,103.041076 48.1647887,102.832625 47.8753521,102.832625 C47.5823944,102.832625 47.4334507,103.041076 47.4334507,103.45516" id="Fill-16" fill="#FEFEFE"></path>
                        <path d="M50.4765493,101.835653 L51.6261972,101.835653 L51.6519014,102.419456 C52.0885211,101.971217 52.4684507,101.744808 52.7864085,101.744808 C52.9212676,101.744808 53.0540141,101.777907 53.1899296,101.849386 C53.3244366,101.919808 53.4240845,102.013118 53.4902817,102.121921 C53.6149296,102.317696 53.6744366,102.707132 53.6744366,103.290583 L53.6744366,108.58847 L52.5029577,108.58847 L52.5029577,103.33671 C52.5029577,103.002555 52.3938028,102.832484 52.1920423,102.832484 C52.0473239,102.832484 51.8688028,102.924738 51.6519014,103.102555 L51.6519014,108.58847 L50.4765493,108.58847 L50.4765493,101.835653 Z" id="Fill-17" fill="#FEFEFE"></path>
                        <path d="M57.2303169,108.588505 L57.2303169,102.926886 L56.6915845,102.926886 L56.6915845,101.835689 L57.2303169,101.835689 L57.2303169,101.039562 C57.2303169,100.542731 57.3215141,100.183928 57.5025,99.958928 C57.7352465,99.6564632 58.0866549,99.5036463 58.5479225,99.5036463 C58.6785563,99.5036463 58.8275,99.5138576 59.0007394,99.5251252 L59.0007394,100.617027 C58.9373592,100.60928 58.8810211,100.607872 58.8355986,100.607872 C58.5479225,100.607872 58.4035563,100.750477 58.4035563,101.039562 L58.4035563,101.835689 L59.0007394,101.835689 L59.0007394,102.926886 L58.4035563,102.926886 L58.4035563,108.588505 L57.2303169,108.588505 Z" id="Fill-18" fill="#FEFEFE"></path>
                        <path d="M62.9604225,103.649174 L62.9604225,106.776287 C62.9604225,108.044597 62.4209859,108.682977 61.3438732,108.682977 C60.2692254,108.682977 59.7340141,108.044597 59.7340141,106.776287 L59.7340141,103.649174 C59.7340141,102.376639 60.2692254,101.744949 61.3438732,101.744949 C62.4209859,101.744949 62.9604225,102.376639 62.9604225,103.649174 M60.9051408,103.45516 L60.9051408,106.970653 C60.9051408,107.386498 61.0540845,107.592836 61.3438732,107.592836 C61.6382394,107.592836 61.7847183,107.386498 61.7847183,106.970653 L61.7847183,103.45516 C61.7847183,103.041076 61.6382394,102.832625 61.3438732,102.832625 C61.0540845,102.832625 60.9051408,103.041076 60.9051408,103.45516" id="Fill-19" fill="#FEFEFE"></path>
                        <path d="M63.9494366,101.835653 L65.1251408,101.835653 L65.1251408,102.677555 C65.4395775,102.029667 65.8399296,101.718048 66.3325352,101.744808 L66.3325352,103.057132 C66.128662,103.022625 65.9800704,103.005372 65.8853521,103.005372 C65.3779577,103.005372 65.1251408,103.340231 65.1251408,104.009949 L65.1251408,108.58847 L63.9494366,108.58847 L63.9494366,101.835653 Z" id="Fill-20" fill="#FEFEFE"></path>
                        <polygon id="Fill-21" fill="#FEFEFE" points="69.2014085 108.588224 70.3788732 108.588224 70.3788732 99.5248435 69.2014085 99.5248435"></polygon>
                        <path d="M71.3908451,108.588576 L72.5658451,108.588576 L72.5658451,101.835759 L71.3908451,101.835759 L71.3908451,108.588576 Z M71.3908451,100.734703 L72.5658451,100.734703 L72.5658451,99.5248435 L71.3908451,99.5248435 L71.3908451,100.734703 Z" id="Fill-22" fill="#FEFEFE"></path>
                        <path d="M73.7621127,108.588505 L73.7621127,102.926886 L73.2251408,102.926886 L73.2251408,101.835689 L73.7621127,101.835689 L73.7621127,101.039562 C73.7621127,100.542731 73.8540141,100.183928 74.035,99.958928 C74.269507,99.6564632 74.6170423,99.5036463 75.0839437,99.5036463 C75.2107042,99.5036463 75.3617606,99.5138576 75.535,99.5251252 L75.535,100.617027 C75.4698592,100.60928 75.4159859,100.607872 75.3702113,100.607872 C75.0821831,100.607872 74.9378169,100.750477 74.9378169,101.039562 L74.9378169,101.835689 L75.535,101.835689 L75.535,102.926886 L74.9378169,102.926886 L74.9378169,108.588505 L73.7621127,108.588505 Z" id="Fill-23" fill="#FEFEFE"></path>
                        <path d="M78.3179577,106.226956 L79.4961268,106.226956 C79.5066901,106.550548 79.5130282,106.761815 79.5130282,106.854773 C79.5130282,107.366393 79.4080986,107.76921 79.2038732,108.066041 C78.9183099,108.475548 78.468662,108.682942 77.8524648,108.682942 C77.3352113,108.682942 76.9292254,108.491393 76.6334507,108.110055 C76.3894366,107.808294 76.2676056,107.362167 76.2676056,106.776252 L76.2676056,103.635407 C76.2676056,102.992449 76.4035211,102.520618 76.6757042,102.208294 C76.9475352,101.901604 77.3658451,101.744914 77.9207746,101.744914 C78.4028169,101.744914 78.7862676,101.895618 79.0683099,102.201252 C79.3542254,102.498787 79.4961268,102.914632 79.4961268,103.429421 L79.4961268,105.414632 L77.4394366,105.414632 L77.4394366,106.903013 C77.4394366,107.366393 77.5859155,107.598435 77.8746479,107.598435 C78.0457746,107.598435 78.168662,107.52766 78.2383803,107.387167 C78.2954225,107.283294 78.3232394,107.080829 78.3179577,106.797027 L78.3179577,106.496674 L78.3179577,106.226956 Z M77.4394366,104.473435 L78.3179577,104.473435 L78.3179577,103.331886 C78.3179577,102.997731 78.1725352,102.83259 77.8830986,102.83259 C77.5901408,102.83259 77.4394366,102.997731 77.4394366,103.331886 L77.4394366,104.473435 Z" id="Fill-24" fill="#FEFEFE"></path>
                        <path d="M28.5189789,47.7295266 C31.3527817,47.7295266 33.6513732,50.0284703 33.6513732,52.8612167 C33.6513732,55.693259 31.3527817,57.9957238 28.5189789,57.9957238 C25.6865845,57.9957238 23.3851761,55.693259 23.3851761,52.8612167 C23.3851761,50.0284703 25.6865845,47.7295266 28.5189789,47.7295266" id="Fill-25" fill="#EC102C"></path>
                        <polygon id="Fill-26" fill="#FEFEFE" points="24.8242958 92.3547731 32.1591549 92.3547731 32.1591549 62.7354069 24.8242958 62.7354069"></polygon>
                        <polygon id="Fill-27" fill="#FEFEFE" points="39.4919014 92.3547731 46.8242958 92.3547731 46.8242958 47.729421 39.4919014 47.729421"></polygon>
                        <path d="M69.8930282,77.2149139 L69.8930282,81.2325196 C69.8947887,81.6973083 69.8377465,82.2004773 69.7046479,82.5863928 C69.3553521,83.6145618 68.6458451,84.6635055 67.6152113,85.4434351 C66.5866901,86.2194914 65.2493662,86.737097 63.5469014,86.740266 C62.4264789,86.737097 61.4634507,86.408928 60.795493,85.7944914 C60.1275352,85.1765336 59.6673239,84.2532942 59.6564085,82.7325196 C59.6634507,81.5832238 59.9638028,80.7473083 60.4683803,80.058928 C61.2187324,79.0346322 62.5609859,78.2923787 64.2856338,77.837097 C65.9507746,77.3934351 67.9324648,77.2251252 69.8930282,77.2149139 L69.8930282,77.2149139 Z M77.5134507,90.85259 C77.2250704,88.9543505 77.1046479,86.5328717 77.1046479,84.0515336 L77.1046479,73.199421 C77.1000704,70.171252 76.561338,66.9846322 74.708169,64.4740689 C73.7845775,63.2194914 72.5264789,62.15259 70.9116901,61.4268858 C69.2961972,60.6976604 67.3317606,60.2966041 64.986338,60.2997731 C61.1380986,60.3054069 57.4525352,61.3518858 54.8469014,62.974421 L54.1571127,63.4032942 L56.0483099,68.9895618 L57.1680282,68.2328717 C58.9905634,66.996252 61.6409155,66.246252 64.2042958,66.25259 L64.2180282,66.25259 L64.3296479,66.25259 C65.6585211,66.25259 66.6194366,66.4987167 67.3317606,66.8543505 C68.3923239,67.3958998 68.9652113,68.1948435 69.3285915,69.1321674 C69.6233099,69.9124491 69.7380986,70.7730125 69.7652113,71.5177308 C64.4912676,71.6032942 60.2814085,72.5645618 57.2585211,74.4539984 C55.6764789,75.4430829 54.4275352,76.7011815 53.5852817,78.2071674 C52.7472535,79.7106886 52.3247183,81.4406182 52.3247183,83.3321674 C52.3247183,85.6737167 53.1602817,88.0131534 54.8437324,89.7804069 C56.5169718,91.5480125 59.0338732,92.6937872 62.2004225,92.6937872 L62.2271831,92.6937872 C65.7187324,92.6888576 68.5972535,91.3606886 70.5349296,89.5610407 L70.8585211,92.0353365 L77.6923239,92.0353365 L77.5134507,90.85259 Z" id="Fill-28" fill="#FEFEFE"></path>
                    </g>
                </g>
            </g>
            <g id="footer" transform="translate(0.000000, 5924.000000)">
                <rect id="Rectangle-18" fill="#2F2F2F" x="0" y="0" width="1366" height="498"></rect>
                <g id="logo" transform="translate(113.000000, 0.000000)">
                    <polygon id="Fill-1" fill="#2B368C" points="0 130 100 130 100 0 0 0"></polygon>
                    <path d="M22.3485563,106.226956 L23.5253169,106.226956 C23.5390493,106.550548 23.5453873,106.761815 23.5453873,106.854773 C23.5453873,107.366393 23.4408099,107.76921 23.2337676,108.066041 C22.9503169,108.475548 22.5003169,108.682942 21.8830634,108.682942 C21.3654577,108.682942 20.9601761,108.491393 20.6640493,108.110055 C20.4179225,107.808294 20.2971479,107.362167 20.2971479,106.776252 L20.2971479,103.635407 C20.2971479,102.992449 20.4351761,102.520618 20.7063028,102.208294 C20.9798944,101.901604 21.3939789,101.744914 21.9499648,101.744914 C22.4351761,101.744914 22.8179225,101.895618 23.0982042,102.201252 C23.3830634,102.498787 23.5253169,102.914632 23.5253169,103.429421 L23.5253169,105.414632 L21.4728521,105.414632 L21.4728521,106.903013 C21.4728521,107.366393 21.6165141,107.598435 21.9031338,107.598435 C22.0763732,107.598435 22.1978521,107.52766 22.2714437,107.387167 C22.3277817,107.283294 22.3524296,107.080829 22.3485563,106.797027 L22.3485563,106.496674 L22.3485563,106.226956 Z M21.4728521,104.473435 L22.3485563,104.473435 L22.3485563,103.331886 C22.3485563,102.997731 22.2041901,102.83259 21.912993,102.83259 C21.6210915,102.83259 21.4728521,102.997731 21.4728521,103.331886 L21.4728521,104.473435 Z" id="Fill-2" fill="#FEFEFE"></path>
                    <path d="M27.7273592,108.588505 L26.5805282,108.588505 L26.552007,107.955055 C26.1326408,108.439914 25.7541197,108.682872 25.4196127,108.682872 C25.2826408,108.682872 25.1509507,108.645548 25.0157394,108.569844 C24.8812324,108.499773 24.7794718,108.405407 24.7129225,108.288505 C24.5879225,108.092027 24.527007,107.693435 24.527007,107.088858 L24.527007,103.336745 C24.527007,102.738153 24.5879225,102.338153 24.7129225,102.13428 C24.7794718,102.023013 24.8812324,101.924421 25.0129225,101.851534 C25.1446127,101.778998 25.2798239,101.744844 25.4125704,101.744844 C25.7460211,101.744844 26.1273592,101.988505 26.552007,102.474421 L26.552007,99.5251252 L27.7273592,99.5251252 L27.7273592,108.588505 Z M26.552007,103.10259 C26.3365141,102.924773 26.1565845,102.83252 26.0167958,102.83252 C25.8090493,102.83252 25.7009507,103.00259 25.7009507,103.336745 L25.7009507,107.088858 C25.7009507,107.426182 25.8090493,107.593083 26.0167958,107.593083 C26.1565845,107.593083 26.3365141,107.503998 26.552007,107.3209 L26.552007,103.10259 Z" id="Fill-4" fill="#FEFEFE"></path>
                    <path d="M31.9425704,108.588505 L30.8707394,108.588505 L30.7682746,108.006111 C30.3323592,108.458224 29.950669,108.682872 29.6348239,108.682872 C29.5003169,108.682872 29.3679225,108.645548 29.2323592,108.574069 C29.0996127,108.505055 28.9982042,108.413505 28.9302465,108.303998 C28.8073592,108.109984 28.7436268,107.718787 28.7436268,107.134984 L28.7436268,101.835689 L29.9182746,101.835689 L29.9182746,107.088858 C29.9182746,107.426182 30.0225,107.593083 30.2302465,107.593083 C30.3735563,107.593083 30.5527817,107.503998 30.7682746,107.3209 L30.7682746,101.835689 L31.9425704,101.835689 L31.9425704,108.588505 Z" id="Fill-6" fill="#FEFEFE"></path>
                    <path d="M36.1593662,104.200689 L34.983662,104.200689 L34.983662,103.927449 L34.983662,103.627801 C34.983662,103.335196 34.9600704,103.135548 34.905493,103.03766 C34.8322535,102.896463 34.7040845,102.827097 34.5308451,102.827097 C34.2516197,102.827097 34.1069014,103.057027 34.1069014,103.52252 L34.1069014,106.903153 C34.1069014,107.366534 34.2516197,107.598576 34.5308451,107.598576 C34.7040845,107.598576 34.8322535,107.527449 34.905493,107.386956 C34.9600704,107.290125 34.983662,107.091182 34.983662,106.797167 L34.983662,106.496815 L34.983662,106.111956 L36.1593662,106.111956 C36.1723944,106.496815 36.1797887,106.736604 36.1797887,106.828858 C36.1797887,107.357379 36.0776761,107.769351 35.8702817,108.065829 C35.5843662,108.475689 35.1371831,108.682731 34.5192254,108.682731 C34.0033803,108.682731 33.5966901,108.491534 33.2991549,108.110196 C33.0533803,107.808435 32.9340141,107.362308 32.9340141,106.776393 L32.9340141,103.64928 C32.9340141,103.065477 33.0533803,102.615125 33.2991549,102.307379 C33.5966901,101.932027 34.0033803,101.744703 34.5192254,101.744703 C35.1371831,101.744703 35.5843662,101.94928 35.8702817,102.359491 C36.0776761,102.657027 36.1797887,103.059844 36.1797887,103.566534 C36.1797887,103.658083 36.1723944,103.866886 36.1593662,104.200689" id="Fill-8" fill="#FEFEFE"></path>
                    <path d="M40.278169,108.588505 L39.0570423,108.588505 C39.0214789,108.450125 38.9911972,108.267731 38.9753521,108.035689 C38.6901408,108.469491 38.3528169,108.682872 37.9721831,108.682872 C37.2820423,108.682872 36.9387324,108.109984 36.9387324,106.976886 C36.9387324,106.442379 37.046831,105.989914 37.2623239,105.627238 C37.4623239,105.287801 37.8380282,104.939562 38.3855634,104.591674 C38.6588028,104.411393 38.8573944,104.27759 38.9753521,104.200829 L38.9753521,103.441322 C38.9753521,103.199421 38.9598592,103.046604 38.9292254,102.983928 C38.8721831,102.882872 38.7651408,102.83252 38.6109155,102.83252 C38.4007042,102.83252 38.2669014,102.936041 38.2049296,103.137449 C38.1707746,103.25752 38.1429577,103.487449 38.125,103.820548 L36.9830986,103.820548 C37.0373239,103.18252 37.1383803,102.729351 37.290493,102.462097 C37.5549296,101.981463 38.0014085,101.744844 38.6316901,101.744844 C39.1077465,101.744844 39.4838028,101.883928 39.7535211,102.167379 C40.0176056,102.438153 40.1503521,102.836041 40.1503521,103.357872 L40.1503521,107.500125 C40.1542254,107.975829 40.1985915,108.334984 40.278169,108.588505 L40.278169,108.588505 Z M38.9753521,105.126534 C38.6316901,105.414562 38.3978873,105.692731 38.2711268,105.973013 C38.1651408,106.20752 38.1119718,106.507167 38.1119718,106.868787 C38.1119718,107.345196 38.2366197,107.586745 38.484507,107.586745 C38.6514085,107.586745 38.8179577,107.469139 38.9753521,107.225829 L38.9753521,105.126534 Z" id="Fill-10" fill="#FEFEFE"></path>
                    <path d="M43.4859507,102.926921 L42.6465141,102.926921 L42.6465141,106.897696 C42.6465141,107.305794 42.8377113,107.512484 43.2172887,107.512484 C43.2771479,107.512484 43.3644718,107.508963 43.4859507,107.499808 L43.4859507,108.588541 C43.1887676,108.651921 42.9641197,108.682907 42.8077817,108.682907 C42.3915845,108.682907 42.0577817,108.569174 41.8186972,108.341358 C41.5827817,108.12516 41.4715141,107.777273 41.4715141,107.301569 L41.4715141,102.926921 L40.9028521,102.926921 L40.9028521,101.835724 L41.4715141,101.835724 L41.4715141,99.9779773 L42.6465141,99.9779773 L42.6465141,101.835724 L43.4859507,101.835724 L43.4859507,102.926921 Z" id="Fill-12" fill="#FEFEFE"></path>
                    <path d="M44.0957746,108.588576 L45.2679577,108.588576 L45.2679577,101.835759 L44.0957746,101.835759 L44.0957746,108.588576 Z M44.0957746,100.734703 L45.2679577,100.734703 L45.2679577,99.5248435 L44.0957746,99.5248435 L44.0957746,100.734703 Z" id="Fill-14" fill="#FEFEFE"></path>
                    <path d="M49.4880282,103.649174 L49.4880282,106.776287 C49.4880282,108.044597 48.9489437,108.682977 47.8753521,108.682977 C46.8,108.682977 46.2588028,108.044597 46.2588028,106.776287 L46.2588028,103.649174 C46.2588028,102.376639 46.8,101.744949 47.8753521,101.744949 C48.9489437,101.744949 49.4880282,102.376639 49.4880282,103.649174 M47.4334507,103.45516 L47.4334507,106.970653 C47.4334507,107.386498 47.5823944,107.592836 47.8753521,107.592836 C48.1647887,107.592836 48.3112676,107.386498 48.3112676,106.970653 L48.3112676,103.45516 C48.3112676,103.041076 48.1647887,102.832625 47.8753521,102.832625 C47.5823944,102.832625 47.4334507,103.041076 47.4334507,103.45516" id="Fill-16" fill="#FEFEFE"></path>
                    <path d="M50.4765493,101.835653 L51.6261972,101.835653 L51.6519014,102.419456 C52.0885211,101.971217 52.4684507,101.744808 52.7864085,101.744808 C52.9212676,101.744808 53.0540141,101.777907 53.1899296,101.849386 C53.3244366,101.919808 53.4240845,102.013118 53.4902817,102.121921 C53.6149296,102.317696 53.6744366,102.707132 53.6744366,103.290583 L53.6744366,108.58847 L52.5029577,108.58847 L52.5029577,103.33671 C52.5029577,103.002555 52.3938028,102.832484 52.1920423,102.832484 C52.0473239,102.832484 51.8688028,102.924738 51.6519014,103.102555 L51.6519014,108.58847 L50.4765493,108.58847 L50.4765493,101.835653 Z" id="Fill-17" fill="#FEFEFE"></path>
                    <path d="M57.2303169,108.588505 L57.2303169,102.926886 L56.6915845,102.926886 L56.6915845,101.835689 L57.2303169,101.835689 L57.2303169,101.039562 C57.2303169,100.542731 57.3215141,100.183928 57.5025,99.958928 C57.7352465,99.6564632 58.0866549,99.5036463 58.5479225,99.5036463 C58.6785563,99.5036463 58.8275,99.5138576 59.0007394,99.5251252 L59.0007394,100.617027 C58.9373592,100.60928 58.8810211,100.607872 58.8355986,100.607872 C58.5479225,100.607872 58.4035563,100.750477 58.4035563,101.039562 L58.4035563,101.835689 L59.0007394,101.835689 L59.0007394,102.926886 L58.4035563,102.926886 L58.4035563,108.588505 L57.2303169,108.588505 Z" id="Fill-18" fill="#FEFEFE"></path>
                    <path d="M62.9604225,103.649174 L62.9604225,106.776287 C62.9604225,108.044597 62.4209859,108.682977 61.3438732,108.682977 C60.2692254,108.682977 59.7340141,108.044597 59.7340141,106.776287 L59.7340141,103.649174 C59.7340141,102.376639 60.2692254,101.744949 61.3438732,101.744949 C62.4209859,101.744949 62.9604225,102.376639 62.9604225,103.649174 M60.9051408,103.45516 L60.9051408,106.970653 C60.9051408,107.386498 61.0540845,107.592836 61.3438732,107.592836 C61.6382394,107.592836 61.7847183,107.386498 61.7847183,106.970653 L61.7847183,103.45516 C61.7847183,103.041076 61.6382394,102.832625 61.3438732,102.832625 C61.0540845,102.832625 60.9051408,103.041076 60.9051408,103.45516" id="Fill-19" fill="#FEFEFE"></path>
                    <path d="M63.9494366,101.835653 L65.1251408,101.835653 L65.1251408,102.677555 C65.4395775,102.029667 65.8399296,101.718048 66.3325352,101.744808 L66.3325352,103.057132 C66.128662,103.022625 65.9800704,103.005372 65.8853521,103.005372 C65.3779577,103.005372 65.1251408,103.340231 65.1251408,104.009949 L65.1251408,108.58847 L63.9494366,108.58847 L63.9494366,101.835653 Z" id="Fill-20" fill="#FEFEFE"></path>
                    <polygon id="Fill-21" fill="#FEFEFE" points="69.2014085 108.588224 70.3788732 108.588224 70.3788732 99.5248435 69.2014085 99.5248435"></polygon>
                    <path d="M71.3908451,108.588576 L72.5658451,108.588576 L72.5658451,101.835759 L71.3908451,101.835759 L71.3908451,108.588576 Z M71.3908451,100.734703 L72.5658451,100.734703 L72.5658451,99.5248435 L71.3908451,99.5248435 L71.3908451,100.734703 Z" id="Fill-22" fill="#FEFEFE"></path>
                    <path d="M73.7621127,108.588505 L73.7621127,102.926886 L73.2251408,102.926886 L73.2251408,101.835689 L73.7621127,101.835689 L73.7621127,101.039562 C73.7621127,100.542731 73.8540141,100.183928 74.035,99.958928 C74.269507,99.6564632 74.6170423,99.5036463 75.0839437,99.5036463 C75.2107042,99.5036463 75.3617606,99.5138576 75.535,99.5251252 L75.535,100.617027 C75.4698592,100.60928 75.4159859,100.607872 75.3702113,100.607872 C75.0821831,100.607872 74.9378169,100.750477 74.9378169,101.039562 L74.9378169,101.835689 L75.535,101.835689 L75.535,102.926886 L74.9378169,102.926886 L74.9378169,108.588505 L73.7621127,108.588505 Z" id="Fill-23" fill="#FEFEFE"></path>
                    <path d="M78.3179577,106.226956 L79.4961268,106.226956 C79.5066901,106.550548 79.5130282,106.761815 79.5130282,106.854773 C79.5130282,107.366393 79.4080986,107.76921 79.2038732,108.066041 C78.9183099,108.475548 78.468662,108.682942 77.8524648,108.682942 C77.3352113,108.682942 76.9292254,108.491393 76.6334507,108.110055 C76.3894366,107.808294 76.2676056,107.362167 76.2676056,106.776252 L76.2676056,103.635407 C76.2676056,102.992449 76.4035211,102.520618 76.6757042,102.208294 C76.9475352,101.901604 77.3658451,101.744914 77.9207746,101.744914 C78.4028169,101.744914 78.7862676,101.895618 79.0683099,102.201252 C79.3542254,102.498787 79.4961268,102.914632 79.4961268,103.429421 L79.4961268,105.414632 L77.4394366,105.414632 L77.4394366,106.903013 C77.4394366,107.366393 77.5859155,107.598435 77.8746479,107.598435 C78.0457746,107.598435 78.168662,107.52766 78.2383803,107.387167 C78.2954225,107.283294 78.3232394,107.080829 78.3179577,106.797027 L78.3179577,106.496674 L78.3179577,106.226956 Z M77.4394366,104.473435 L78.3179577,104.473435 L78.3179577,103.331886 C78.3179577,102.997731 78.1725352,102.83259 77.8830986,102.83259 C77.5901408,102.83259 77.4394366,102.997731 77.4394366,103.331886 L77.4394366,104.473435 Z" id="Fill-24" fill="#FEFEFE"></path>
                    <path d="M28.5189789,47.7295266 C31.3527817,47.7295266 33.6513732,50.0284703 33.6513732,52.8612167 C33.6513732,55.693259 31.3527817,57.9957238 28.5189789,57.9957238 C25.6865845,57.9957238 23.3851761,55.693259 23.3851761,52.8612167 C23.3851761,50.0284703 25.6865845,47.7295266 28.5189789,47.7295266" id="Fill-25" fill="#EC102C"></path>
                    <polygon id="Fill-26" fill="#FEFEFE" points="24.8242958 92.3547731 32.1591549 92.3547731 32.1591549 62.7354069 24.8242958 62.7354069"></polygon>
                    <polygon id="Fill-27" fill="#FEFEFE" points="39.4919014 92.3547731 46.8242958 92.3547731 46.8242958 47.729421 39.4919014 47.729421"></polygon>
                    <path d="M69.8930282,77.2149139 L69.8930282,81.2325196 C69.8947887,81.6973083 69.8377465,82.2004773 69.7046479,82.5863928 C69.3553521,83.6145618 68.6458451,84.6635055 67.6152113,85.4434351 C66.5866901,86.2194914 65.2493662,86.737097 63.5469014,86.740266 C62.4264789,86.737097 61.4634507,86.408928 60.795493,85.7944914 C60.1275352,85.1765336 59.6673239,84.2532942 59.6564085,82.7325196 C59.6634507,81.5832238 59.9638028,80.7473083 60.4683803,80.058928 C61.2187324,79.0346322 62.5609859,78.2923787 64.2856338,77.837097 C65.9507746,77.3934351 67.9324648,77.2251252 69.8930282,77.2149139 L69.8930282,77.2149139 Z M77.5134507,90.85259 C77.2250704,88.9543505 77.1046479,86.5328717 77.1046479,84.0515336 L77.1046479,73.199421 C77.1000704,70.171252 76.561338,66.9846322 74.708169,64.4740689 C73.7845775,63.2194914 72.5264789,62.15259 70.9116901,61.4268858 C69.2961972,60.6976604 67.3317606,60.2966041 64.986338,60.2997731 C61.1380986,60.3054069 57.4525352,61.3518858 54.8469014,62.974421 L54.1571127,63.4032942 L56.0483099,68.9895618 L57.1680282,68.2328717 C58.9905634,66.996252 61.6409155,66.246252 64.2042958,66.25259 L64.2180282,66.25259 L64.3296479,66.25259 C65.6585211,66.25259 66.6194366,66.4987167 67.3317606,66.8543505 C68.3923239,67.3958998 68.9652113,68.1948435 69.3285915,69.1321674 C69.6233099,69.9124491 69.7380986,70.7730125 69.7652113,71.5177308 C64.4912676,71.6032942 60.2814085,72.5645618 57.2585211,74.4539984 C55.6764789,75.4430829 54.4275352,76.7011815 53.5852817,78.2071674 C52.7472535,79.7106886 52.3247183,81.4406182 52.3247183,83.3321674 C52.3247183,85.6737167 53.1602817,88.0131534 54.8437324,89.7804069 C56.5169718,91.5480125 59.0338732,92.6937872 62.2004225,92.6937872 L62.2271831,92.6937872 C65.7187324,92.6888576 68.5972535,91.3606886 70.5349296,89.5610407 L70.8585211,92.0353365 L77.6923239,92.0353365 L77.5134507,90.85259 Z" id="Fill-28" fill="#FEFEFE"></path>
                </g>
            </g>
        </g>
    </g>
</svg>