<?xml version="1.0" ?><svg width="40" height="40" baseProfile="tiny" id="Layer_1" version="1.2" viewBox="0 0 512 512" xml:space="preserve" xmlns="http://www.w3.org/2000/svg" xmlns:xlink="http://www.w3.org/1999/xlink"><g id="XMLID_1768_"><circle cx="256" cy="256" fill="#F3726E" id="XMLID_1647_" r="256"/><g id="XMLID_765_"><g id="XMLID_766_"><path d="M96,137.2v269.2h58.3V137.2H96z M153,403.4H97.3v-3.8H153V403.4z M153,397.4H97.3v-3.8     H153V397.4z M153,391.4H97.3v-3.8H153V391.4z M153,385.3H97.3v-3.8H153V385.3z M153,379.3H97.3v-3.8H153V379.3z M153,373.2H97.3     v-3.8H153V373.2z M153,367.2H97.3v-3.8H153V367.2z M153,361.2H97.3v-3.8H153V361.2z M153,355.1H97.3v-3.8H153V355.1z M153,349.1     H97.3v-3.8H153V349.1z M153,343H97.3v-3.8H153V343z M153,337H97.3v-3.8H153V337z M153,331H97.3v-3.8H153V331z M153,325H97.3v-3.8     H153V325z M153,318.9H97.3v-3.8H153V318.9z M153,312.9H97.3v-3.8H153V312.9z M153,306.9H97.3v-3.8H153V306.9z M153,300.9H97.3     v-3.8H153V300.9z M153,294.8H97.3V291H153V294.8z M153,288.8H97.3V285H153V288.8z M153,282.8H97.3V279H153V282.8z M153,276.7     H97.3V273H153V276.7z M153,270.7H97.3v-3.8H153V270.7z M153,264.6H97.3v-3.8H153V264.6z M153,258.6H97.3v-3.8H153V258.6z      M153,252.5H97.3v-3.8H153V252.5z M153,246.5H97.3v-3.8H153V246.5z M153,240.5H97.3v-3.8H153V240.5z M153,234.5H97.3v-3.8H153     V234.5z M153,228.4H97.3v-3.8H153V228.4z M153,222.4H97.3v-3.8H153V222.4z M153,216.4H97.3v-3.8H153V216.4z M153,210.4H97.3v-3.8     H153V210.4z M153,204.3H97.3v-3.8H153V204.3z M153,198.3H97.3v-3.8H153V198.3z M153,192.3H97.3v-3.8H153V192.3z M153,186.2H97.3     v-3.8H153V186.2z M153,180.2H97.3v-3.8H153V180.2z M153,174.1H97.3v-3.8H153V174.1z M153,168.1H97.3v-3.8H153V168.1z M153,162     H97.3v-3.8H153V162z M153,156H97.3v-3.8H153V156z M153,150H97.3v-3.8H153V150z M153,144H97.3v-3.8H153V144z" fill="#FFFFFF" id="XMLID_1039_"/><g id="XMLID_1025_"><path d="M157.5,177.2v229.2h57V177.2H157.5z M211.1,402.4h-50.3V181.2h50.3V402.4z" fill="#FFFFFF" id="XMLID_1038_"/><rect fill="#FFFFFF" height="226.2" id="XMLID_1037_" width="1.8" x="185.2" y="180"/><g id="XMLID_1026_"><rect fill="#FFFFFF" height="1.8" id="XMLID_1036_" width="54.8" x="158.8" y="203.5"/><rect fill="#FFFFFF" height="1.8" id="XMLID_1035_" width="54.8" x="158.8" y="225.3"/><rect fill="#FFFFFF" height="1.8" id="XMLID_1034_" width="54.8" x="158.8" y="247.2"/><rect fill="#FFFFFF" height="1.8" id="XMLID_1033_" width="54.8" x="158.8" y="269.1"/><rect fill="#FFFFFF" height="1.8" id="XMLID_1032_" width="54.8" x="158.8" y="290.9"/><rect fill="#FFFFFF" height="1.8" id="XMLID_1031_" width="54.8" x="158.8" y="312.8"/><rect fill="#FFFFFF" height="1.8" id="XMLID_1030_" width="54.8" x="158.8" y="334.7"/><rect fill="#FFFFFF" height="1.8" id="XMLID_1029_" width="54.8" x="158.8" y="356.5"/><rect fill="#FFFFFF" height="1.8" id="XMLID_1028_" width="54.8" x="158.8" y="378.4"/></g></g><path d="M299.8,137.1v269.3h58.3V137.1H299.8z M356.7,403.3h-55.6v-3.8h55.6V403.3z      M356.7,397.3h-55.6v-3.8h55.6V397.3z M356.7,391.3h-55.6v-3.8h55.6V391.3z M356.7,385.3h-55.6v-3.8h55.6V385.3z M356.7,379.2     h-55.6v-3.8h55.6V379.2z M356.7,373.2h-55.6v-3.8h55.6V373.2z M356.7,367.2h-55.6v-3.8h55.6V367.2z M356.7,361.1h-55.6v-3.8h55.6     V361.1z M356.7,355.1h-55.6v-3.8h55.6V355.1z M356.7,349.1h-55.6v-3.8h55.6V349.1z M356.7,343h-55.6v-3.8h55.6V343z M356.7,337     h-55.6v-3.8h55.6V337z M356.7,330.9h-55.6v-3.8h55.6V330.9z M356.7,324.9h-55.6v-3.8h55.6V324.9z M356.7,318.9h-55.6v-3.8h55.6     V318.9z M356.7,312.8h-55.6v-3.7h55.6V312.8z M356.7,306.8h-55.6V303h55.6V306.8z M356.7,300.8h-55.6V297h55.6V300.8z      M356.7,294.8h-55.6V291h55.6V294.8z M356.7,288.7h-55.6v-3.8h55.6V288.7z M356.7,282.7h-55.6v-3.8h55.6V282.7z M356.7,276.7     h-55.6v-3.8h55.6V276.7z M356.7,270.6h-55.6v-3.7h55.6V270.6z M356.7,264.6h-55.6v-3.8h55.6V264.6z M356.7,258.6h-55.6v-3.8h55.6     V258.6z M356.7,252.5h-55.6v-3.8h55.6V252.5z M356.7,246.5h-55.6v-3.8h55.6V246.5z M356.7,240.4h-55.6v-3.8h55.6V240.4z      M356.7,234.4h-55.6v-3.8h55.6V234.4z M356.7,228.4h-55.6v-3.8h55.6V228.4z M356.7,222.3h-55.6v-3.8h55.6V222.3z M356.7,216.3     h-55.6v-3.8h55.6V216.3z M356.7,210.3h-55.6v-3.8h55.6V210.3z M356.7,204.3h-55.6v-3.8h55.6V204.3z M356.7,198.2h-55.6v-3.8h55.6     V198.2z M356.7,192.2h-55.6v-3.8h55.6V192.2z M356.7,186.2h-55.6v-3.8h55.6V186.2z M356.7,180.1h-55.6v-3.8h55.6V180.1z      M356.7,174.1h-55.6v-3.8h55.6V174.1z M356.7,168.1h-55.6v-3.8h55.6V168.1z M356.7,162h-55.6v-3.8h55.6V162z M356.7,156h-55.6     v-3.8h55.6V156z M356.7,150h-55.6v-3.8h55.6V150z M356.7,143.9h-55.6v-3.8h55.6V143.9z" fill="#FFFFFF" id="XMLID_1024_"/><g id="XMLID_1011_"><path d="M359,177.2v229.2h57V177.2H359z M412.7,402.4h-50.3V181.2h50.3V402.4z" fill="#FFFFFF" id="XMLID_1023_"/><rect fill="#FFFFFF" height="226.2" id="XMLID_1022_" width="1.8" x="386.6" y="180"/><g id="XMLID_1012_"><rect fill="#FFFFFF" height="1.8" id="XMLID_1021_" width="54.8" x="360.3" y="203.4"/><rect fill="#FFFFFF" height="1.8" id="XMLID_1020_" width="54.8" x="360.3" y="225.3"/><rect fill="#FFFFFF" height="1.8" id="XMLID_1019_" width="54.8" x="360.3" y="247.2"/><rect fill="#FFFFFF" height="1.8" id="XMLID_1018_" width="54.8" x="360.3" y="269"/><rect fill="#FFFFFF" height="1.8" id="XMLID_1017_" width="54.8" x="360.3" y="290.9"/><rect fill="#FFFFFF" height="1.8" id="XMLID_1016_" width="54.8" x="360.3" y="312.8"/><rect fill="#FFFFFF" height="1.8" id="XMLID_1015_" width="54.8" x="360.3" y="334.6"/><rect fill="#FFFFFF" height="1.8" id="XMLID_1014_" width="54.8" x="360.3" y="356.5"/><rect fill="#FFFFFF" height="1.8" id="XMLID_1013_" width="54.8" x="360.3" y="378.3"/></g></g><rect fill="#FFFFFF" height="269.3" id="XMLID_3765_" width="2.4" x="124" y="137.1"/><g id="XMLID_872_"><g id="XMLID_3769_"><rect fill="#FFFFFF" height="1.8" id="XMLID_3770_" width="87" x="212.8" y="335.9"/><rect fill="#FFFFFF" height="1.3" id="XMLID_3771_" width="87" x="212.8" y="270"/></g><rect fill="#FFFFFF" height="66.8" id="XMLID_3766_" width="0.8" x="251.7" y="270.7"/><rect fill="#FFFFFF" height="66.8" id="XMLID_1010_" width="0.8" x="261.6" y="270.7"/><rect fill="#FFFFFF" height="66.8" id="XMLID_1008_" width="0.8" x="271.4" y="270.7"/><rect fill="#FFFFFF" height="66.8" id="XMLID_1007_" width="0.8" x="281.2" y="270.7"/><rect fill="#FFFFFF" height="66.8" id="XMLID_1006_" width="0.8" x="291" y="270.7"/><rect fill="#FFFFFF" height="66.8" id="XMLID_1005_" width="0.8" x="222.3" y="270.7"/><rect fill="#FFFFFF" height="0.8" id="XMLID_1004_" width="86.3" x="213.7" y="303"/><rect fill="#FFFFFF" height="0.8" id="XMLID_1003_" width="86.3" x="213.7" y="292.4"/><rect fill="#FFFFFF" height="0.8" id="XMLID_888_" width="86.3" x="213.7" y="281.7"/><rect fill="#FFFFFF" height="0.8" id="XMLID_885_" width="86.3" x="213.7" y="324.4"/><rect fill="#FFFFFF" height="0.8" id="XMLID_875_" width="86.3" x="213.7" y="313.7"/><rect fill="#FFFFFF" height="66.8" id="XMLID_874_" width="0.8" x="232.1" y="270.7"/><rect fill="#FFFFFF" height="66.8" id="XMLID_873_" width="0.8" x="241.9" y="270.7"/></g><rect fill="#FFFFFF" height="15.2" id="XMLID_871_" width="0.5" x="283.7" y="379"/><rect fill="#FFFFFF" height="0.5" id="XMLID_870_" width="19.1" x="274.4" y="386.1"/><rect fill="#FFFFFF" height="15" id="XMLID_834_" width="0.5" x="228.8" y="378.9"/><rect fill="#FFFFFF" height="0.5" id="XMLID_821_" width="17.5" x="220.3" y="386.1"/><path d="M215.6,338.2v67.6h84.2v-67.6H215.6z M237.4,395.6h-16.7v-1.8h16.7V395.6z M237.4,393.6     h-16.7v-14.5h16.7V393.6z M237.4,378.8h-16.7V377h16.7V378.8z M243.8,364.5H221v-23.5h22.8V364.5z M265.1,402.8h-16.8v-20.1     c0-5.4,3.5-9.8,7.7-9.8h1.2c4.3,0,7.7,4.4,7.7,9.8L265.1,402.8L265.1,402.8z M292.3,379.1v14.5h-16.7v-14.5H292.3z M275.6,378.8     V377h16.7v1.8H275.6z M292.4,395.6h-16.7v-1.8h16.7V395.6z M292.9,364.5h-22.8v-23.5h22.8L292.9,364.5L292.9,364.5z" fill="#FFFFFF" id="XMLID_820_"/><rect fill="#FFFFFF" height="33.9" id="XMLID_3805_" width="23.8" x="218.2" y="163.6"/><rect fill="#FFFFFF" height="33.9" id="XMLID_819_" width="23.8" x="272.2" y="163.6"/><polygon fill="#FFFFFF" id="XMLID_3806_" points="296,163.6 218.2,155.8 218.2,143.3 296,162.7    "/><rect fill="#FFFFFF" height="18" id="XMLID_818_" width="83.5" x="215.1" y="250.7"/><g id="XMLID_767_"><path d="M215.1,197.1v52.4H299v-52.4H215.1z M297.7,248.1h-81.2v-49.6h81.2V248.1z" fill="#FFFFFF" id="XMLID_817_"/><rect fill="#FFFFFF" height="51.6" id="XMLID_816_" width="1" x="255.8" y="197.1"/><rect fill="#FFFFFF" height="51.6" id="XMLID_3804_" width="1" x="276.3" y="197.1"/><rect fill="#FFFFFF" height="51.6" id="XMLID_780_" width="1" x="235.4" y="197.1"/><rect fill="#FFFFFF" height="1" id="XMLID_1040_" width="82.7" x="215.9" y="222.4"/></g><rect fill="#FFFFFF" height="1.2" id="XMLID_1057_" transform="matrix(-0.6755 -0.7373 0.7373 -0.6755 294.8816 484.1733)" width="55.3" x="226.3" y="176.6"/></g><path d="M154.3,135.9H96v-23.3c0-3.9,3.2-7.1,7.1-7.1h44.1c3.9,0,7.1,3.2,7.1,7.1V135.9z" fill="#FFFFFF" id="XMLID_1058_"/></g></g></svg>