<?xml version="1.0" encoding="utf-8"?>
<!-- Generator: Adobe Illustrator 21.0.0, SVG Export Plug-In . SVG Version: 6.00 Build 0)  -->
<svg version="1.1" id="g_x2B_" xmlns="http://www.w3.org/2000/svg" xmlns:xlink="http://www.w3.org/1999/xlink" x="0px" y="0px"
	 viewBox="0 0 20 20" style="enable-background:new 0 0 20 20;" xml:space="preserve">
<style type="text/css">
	.st0{opacity:1;}
	.st1{fill:#FFFFFF;}
</style>
<g class="st0">
	<polygon id="_x2B_" class="st1" points="20,8.7 17.3,8.7 17.3,6 16,6 16,8.7 13.3,8.7 13.3,10 16,10 16,12.7 17.3,12.7 17.3,10 
		20,10 	"/>
	<path id="g" class="st1" d="M10,11.3c0,0-1.3-0.8-1.3-1.3c0,0-0.3-1.2,0.7-2c1-0.8,2-2,2-3.3c0-1.6-0.7-3.3-2-4h2L12.9,0
		c0,0-4.7,0-6.3,0C3.9,0,1.3,2.2,1.3,4.7C1.3,7.2,3.2,9,6.1,9c0.2,0,0.4,0,0.6,0c-0.2,0.4-0.3,0.7-0.3,1.2c0,0.7,0.5,1.4,1,1.8
		c-0.4,0-1,0-1.3,0c-3.4,0-6,1.7-6,4c0,2.2,3.2,4,6.7,4c3.9,0,6.6-2,6.6-4.7C13.3,13.5,11.6,12.5,10,11.3z M7.3,8.7
		c-1.6,0-3.7-1.9-4-4c-0.3-2.1,1.1-4,2.7-4c1.6,0,3.1,1.9,3.3,4C9.6,6.8,8.7,8.7,7.3,8.7z M6.7,18.7C4.3,18.7,2,17.8,2,16
		c0-1.8,2.3-3.4,4.7-3.3c0.6,0,1.3,0,1.3,0c0.7,0,1.9,0.6,2.7,1.3c0.7,0.7,0.7,1.8,0.7,2C11.3,18,10,18.7,6.7,18.7z"/>
</g>
</svg>
