<?xml version="1.0" encoding="UTF-8"?>
<svg width="20px" height="20px" viewBox="0 0 20 20" version="1.1" xmlns="http://www.w3.org/2000/svg" xmlns:xlink="http://www.w3.org/1999/xlink">
    <!-- Generator: Sketch 42 (36781) - http://www.bohemiancoding.com/sketch -->
    <title>ic-instagram</title>
    <desc>Created with Sketch.</desc>
    <defs></defs>
    <g id="main" stroke="none" stroke-width="1" fill="none" fill-rule="evenodd" opacity="0.5">
        <g id="1-1-homepage" transform="translate(-1264.000000, -6352.000000)" fill="#FFFFFF">
            <g id="footer" transform="translate(0.000000, 5924.000000)">
                <g id="social" transform="translate(1138.000000, 428.000000)">
                    <g id="Group-24" transform="translate(126.000000, 0.000000)">
                        <path d="M10.5,7 C9.11927492,7 8,8.11927492 8,9.5 C8,10.8807251 9.11927492,12 10.5,12 C11.8807251,12 13,10.8807251 13,9.5 C13,8.11927492 11.8807251,7 10.5,7" id="Fill-1"></path>
                        <path d="M15.3571429,5.85714286 C14.6865513,5.85714286 14.1428571,5.31344873 14.1428571,4.64285714 C14.1428571,3.97222121 14.6865513,3.42857143 15.3571429,3.42857143 C16.0277788,3.42857143 16.5714286,3.97222121 16.5714286,4.64285714 C16.5714286,5.31344873 16.0277788,5.85714286 15.3571429,5.85714286 M10.5000207,14.3571429 C7.81751715,14.3571429 5.64285714,12.182598 5.64285714,9.50000001 C5.64285714,6.81748499 7.81751715,4.64285714 10.5000207,4.64285714 C13.1824828,4.64285714 15.3571429,6.81748499 15.3571429,9.50000001 C15.3571429,12.182598 13.1824828,14.3571429 10.5000207,14.3571429 M18.9488819,5.99550277 C18.9076001,5.09073177 18.7639334,4.47288393 18.5537611,3.93215994 C18.3365843,3.37325409 18.0459346,2.89918449 17.5733543,2.42664247 C17.1008112,1.95410045 16.6268152,1.66345153 16.0678336,1.44623794 C15.5271829,1.23614061 14.9093337,1.09247412 14.0045608,1.05111785 C13.0979622,1.00972431 12.8085049,1 10.5000372,1 C8.19153233,1 7.90207503,1.00972431 6.99547643,1.05111785 C6.09070345,1.09247412 5.47285426,1.23614061 4.93220361,1.44623794 C4.37322201,1.66345153 3.8992259,1.95410045 3.42664559,2.42664247 C2.95410254,2.89918449 2.66345298,3.37325409 2.44627617,3.93215994 C2.23610387,4.47288393 2.09243707,5.09073177 2.05115522,5.99550277 C2.00976159,6.90209939 2,7.19148155 2,9.49998139 C2,11.8085185 2.00976159,12.0979006 2.05115522,13.0044973 C2.09243707,13.9092683 2.23610387,14.5271534 2.44627617,15.0678401 C2.66345298,15.6267459 2.95410254,16.1008156 3.42664559,16.5733576 C3.8992259,17.0459368 4.37322201,17.3365857 4.93220361,17.5537621 C5.47285426,17.7638967 6.09070345,17.9075631 6.99547643,17.9488822 C7.90207503,17.9902012 8.19153233,18 10.5000372,18 C12.8085049,18 13.0979622,17.9902012 14.0045608,17.9488822 C14.9093337,17.9075631 15.5271829,17.7638967 16.0678336,17.5537621 C16.6268152,17.3365857 17.1008112,17.0459368 17.5733543,16.5733576 C18.0459346,16.1008156 18.3365843,15.6267459 18.5537611,15.0678401 C18.7639334,14.5271534 18.9076001,13.9092683 18.9488819,13.0044973 C18.9902755,12.0979006 19,11.8085185 19,9.49998139 C19,7.19148155 18.9902755,6.90209939 18.9488819,5.99550277" id="Fill-3"></path>
                    </g>
                </g>
            </g>
        </g>
    </g>
</svg>