<?xml version="1.0" encoding="UTF-8"?>
<svg width="22px" height="22px" viewBox="0 0 22 22" version="1.1" xmlns="http://www.w3.org/2000/svg" xmlns:xlink="http://www.w3.org/1999/xlink">
    <!-- Generator: Sketch 42 (36781) - http://www.bohemiancoding.com/sketch -->
    <title>ic-location</title>
    <desc>Created with Sketch.</desc>
    <defs>
        <path d="M16,8 C16,12.9371429 8,21 8,21 C8,21 0,12.9371429 0,8 C0,2.93714286 4.13371429,0 8,0 C11.8662857,0 16,2.93714286 16,8 L16,8 Z" id="path-1"></path>
        <mask id="mask-2" maskContentUnits="userSpaceOnUse" maskUnits="objectBoundingBox" x="0" y="0" width="16" height="21" fill="white">
            <use xlink:href="#path-1"></use>
        </mask>
        <path d="M6,8 C6,6.895 6.895,6 8,6 C9.105,6 10,6.895 10,8 C10,9.105 9.105,10 8,10 C6.895,10 6,9.105 6,8 L6,8 Z" id="path-3"></path>
        <mask id="mask-4" maskContentUnits="userSpaceOnUse" maskUnits="objectBoundingBox" x="-1" y="-1" width="6" height="6">
            <rect x="5" y="5" width="6" height="6" fill="white"></rect>
            <use xlink:href="#path-3" fill="black"></use>
        </mask>
    </defs>
    <g id="main" stroke="none" stroke-width="1" fill="none" fill-rule="evenodd" stroke-linecap="round" stroke-linejoin="round">
        <g id="1-1-homepage" transform="translate(-146.000000, -5169.000000)" stroke="#444444" stroke-width="2">
            <g id="Group-24" transform="translate(113.000000, 4835.000000)">
                <g id="Group-23" transform="translate(33.000000, 334.000000)">
                    <use id="Stroke-3165" mask="url(#mask-2)" xlink:href="#path-1"></use>
                    <use id="Stroke-3167" mask="url(#mask-4)" xlink:href="#path-3"></use>
                </g>
            </g>
        </g>
    </g>
</svg>