<?xml version="1.0" encoding="utf-8"?>
<!-- Generator: Adobe Illustrator 21.0.0, SVG Export Plug-In . SVG Version: 6.00 Build 0)  -->
<svg version="1.1" id="Layer_1" xmlns="http://www.w3.org/2000/svg" xmlns:xlink="http://www.w3.org/1999/xlink" x="0px" y="0px"
	 viewBox="0 0 20 20" style="enable-background:new 0 0 20 20;" xml:space="preserve">
<style type="text/css">
	.st0{opacity:0.5; fill:#FFFFFF;}
	.st1{opacity:0.5; fill:#FFFFFF;}
	.st2{fill:none; fill:#FFFFFF;}
	.st3{fill:#FFFFFF;}
</style>
<g class="st0">
	<g class="st1">
		<path class="st2" d="M4.3,20H0.1V5.8h4.3V20z M20,20h-4.3v-7.6c0-2-0.7-3-2.1-3c-1.1,0-1.8,0.6-2.2,1.7c0,1.8,0,8.9,0,8.9H7.2
			c0,0,0.1-12.8,0-14.2h3.4l0.3,2.8h0.1c0.9-1.4,2.3-2.4,4.2-2.4c1.5,0,2.6,0.4,3.5,1.4C19.6,8.7,20,10,20,12V20z"/>
	</g>
	<g>
		<ellipse class="st3" cx="2.2" cy="2.2" rx="2.2" ry="2.1"/>
	</g>
</g>
</svg>
