<?xml version="1.0" encoding="UTF-8"?>
<svg width="20px" height="20px" viewBox="0 0 20 20" version="1.1" xmlns="http://www.w3.org/2000/svg" xmlns:xlink="http://www.w3.org/1999/xlink">
    <!-- Generator: Sketch 42 (36781) - http://www.bohemiancoding.com/sketch -->
    <title>ic-twitter</title>
    <desc>Created with Sketch.</desc>
    <defs></defs>
    <g id="main" stroke="none" stroke-width="1" fill="none" fill-rule="evenodd" opacity="0.5">
        <g id="1-1-homepage" transform="translate(-1177.000000, -6352.000000)" fill="#FFFFFF">
            <g id="footer" transform="translate(0.000000, 5924.000000)">
                <g id="social" transform="translate(1138.000000, 428.000000)">
                    <g id="Twitter_icon" transform="translate(39.000000, 0.000000)">
                        <path d="M20,3.77565173 C19.3009725,4.07681074 18.549713,4.28041244 17.7611582,4.37194656 C18.5658711,3.90323368 19.1840139,3.1611961 19.4750484,2.27688378 C18.7219098,2.71091776 17.887699,3.02603955 16.9997528,3.19578376 C16.2887007,2.45986062 15.2755289,2 14.1544171,2 C12.0016267,2 10.2563596,3.69552521 10.2563596,5.78675514 C10.2563596,6.08344239 10.2908366,6.37255503 10.357348,6.64962132 C7.11764088,6.49174097 4.24524974,4.98412076 2.32280681,2.69312197 C1.98714963,3.25245647 1.79494292,3.90286852 1.79494292,4.59690316 C1.79494292,5.91068659 2.48316697,7.06969251 3.52912475,7.74876045 C2.89012661,7.72913949 2.28898745,7.55884762 1.76356607,7.27511939 C1.7631903,7.29099876 1.7631903,7.30678672 1.7631903,7.32275733 C1.7631903,9.15745444 3.10685234,10.6878897 4.88997823,11.0358654 C4.5629639,11.1224713 4.21857001,11.1688316 3.86309096,11.1688316 C3.61188822,11.1688316 3.36773124,11.1449214 3.12968045,11.100934 C3.6256978,12.6050863 5.06536924,13.7000274 6.77108647,13.7305083 C5.43700646,14.7461444 3.75618412,15.3516565 1.92993854,15.3516565 C1.61523058,15.3516565 1.30493792,15.3335869 1,15.2985429 C2.72506939,16.373133 4.77405301,17 6.97541176,17 C14.1453045,17 18.0661901,11.2297934 18.0661901,6.22580838 C18.0661901,6.0616311 18.0624323,5.89836647 18.0549169,5.73583186 C18.8165101,5.20195901 19.4773969,4.53502868 20,3.77565173" id="Fill-1"></path>
                    </g>
                </g>
            </g>
        </g>
    </g>
</svg>