<?xml version="1.0" encoding="UTF-8"?>
<svg width="20px" height="20px" viewBox="0 0 20 20" version="1.1" xmlns="http://www.w3.org/2000/svg" xmlns:xlink="http://www.w3.org/1999/xlink">
    <!-- Generator: Sketch 42 (36781) - http://www.bohemiancoding.com/sketch -->
    <title>ic-youtube</title>
    <desc>Created with Sketch.</desc>
    <defs></defs>
    <g id="main" stroke="none" stroke-width="1" fill="none" fill-rule="evenodd" opacity="1">
        <g id="1-1-homepage" transform="translate(-1221.000000, -6352.000000)" fill="#FFFFFF">
            <g id="footer" transform="translate(0.000000, 5924.000000)">
                <g id="social" transform="translate(1138.000000, 428.000000)">
                    <g id="Group-12" transform="translate(83.000000, 0.000000)">
                        <path d="M8.53848187,11.5819191 L8.53762068,5.98915192 L13.6714989,8.79527196 L8.53848187,11.5819191 L8.53848187,11.5819191 Z M19.8103215,5.02024617 C19.8103215,5.02024617 19.624662,3.64857579 19.0549806,3.04454159 C18.3325087,2.25171851 17.5226252,2.2478089 17.1512344,2.20141992 C14.4924343,2 10.5041624,2 10.5041624,2 L10.4959093,2 C10.4959093,2 6.50763745,2 3.84876561,2.20141992 C3.4773747,2.2478089 2.66777842,2.25171851 1.94501941,3.04454159 C1.37540982,3.64857579 1.19003732,5.02024617 1.19003732,5.02024617 C1.19003732,5.02024617 1,6.63100403 1,8.24183708 L1,9.75192257 C1,11.3626804 1.19003732,12.9735135 1.19003732,12.9735135 C1.19003732,12.9735135 1.37540982,14.3451839 1.94501941,14.9492181 C2.66777842,15.7420412 3.61717558,15.7169295 4.04009474,15.8000838 C5.56010621,15.952784 10.5,16 10.5,16 C10.5,16 14.4924343,15.9936845 17.1512344,15.7923397 C17.5226252,15.7459508 18.3325087,15.7420412 19.0549806,14.9492181 C19.624662,14.3451839 19.8103215,12.9735135 19.8103215,12.9735135 C19.8103215,12.9735135 20,11.3626804 20,9.75192257 L20,8.24183708 C20,6.63100403 19.8103215,5.02024617 19.8103215,5.02024617 L19.8103215,5.02024617 L19.8103215,5.02024617 Z" id="Fill-1"></path>
                    </g>
                </g>
            </g>
        </g>
    </g>
</svg>