<svg id="Capa_1" data-name="Capa 1" xmlns="http://www.w3.org/2000/svg" viewBox="0 0 40 40"><defs><style>.cls-1{fill:#f99ba4;}.cls-2{fill:#fff;}</style></defs><title>register</title><circle class="cls-1" cx="20" cy="20" r="20"/><path class="cls-2" d="M21.87,8.5H12.76A1.26,1.26,0,0,0,11.5,9.76V30.24a1.26,1.26,0,0,0,1.26,1.26H27.24a1.26,1.26,0,0,0,1.26-1.26V14.71a1.25,1.25,0,0,0-.37-.89l-5.39-5A1.25,1.25,0,0,0,21.87,8.5Zm5.06,21.43H13.07V10.07H20.6v4.22A1.69,1.69,0,0,0,22.29,16h4.64ZM22.29,14.41a.12.12,0,0,1-.12-.12V11l3.67,3.43H22.29Zm-6.92,4.35a1,1,0,1,0,1,1A1,1,0,0,0,15.37,18.75Zm1.78.19h8.34v1.57H17.15Zm-1.78,3a1,1,0,1,0,1,1A1,1,0,0,0,15.37,21.9Zm1.78.19h8.34v1.57H17.15Zm-1.78,3a1,1,0,1,0,1,1A1,1,0,0,0,15.37,25Zm1.78.19h8.34v1.57H17.15Z"/></svg>